HIERARCHY
ROOT Hips
{
	OFFSET -0.001795 -0.223333 0.028219
	CHANNELS 6 Xposition Yposition Zposition Zrotation Yrotation Xrotation 
	JOINT LeftUpLeg
	{
		OFFSET 0.069520 -0.091406 -0.006815
		CHANNELS 3 Zrotation Yrotation Xrotation
		JOINT LeftLeg
		{
			OFFSET 0.034277 -0.375199 -0.004496
			CHANNELS 3 Zrotation Yrotation Xrotation
			JOINT LeftFoot
			{
				OFFSET -0.013596 -0.397961 -0.043693
				CHANNELS 3 Zrotation Yrotation Xrotation
				JOINT LeftToe
				{
					OFFSET 0.026358 -0.055791 0.119288
					CHANNELS 3 Zrotation Yrotation Xrotation
					End Site
					{
						OFFSET 0.000000 0.000000 0.000000
					}
				}
			}
		}
	}
	JOINT RightUpLeg
	{
		OFFSET -0.067670 -0.090522 -0.004320
		CHANNELS 3 Zrotation Yrotation Xrotation
		JOINT RightLeg
		{
			OFFSET -0.038290 -0.382569 -0.008850
			CHANNELS 3 Zrotation Yrotation Xrotation
			JOINT RightFoot
			{
				OFFSET 0.015774 -0.398415 -0.042312
				CHANNELS 3 Zrotation Yrotation Xrotation
				JOINT RightToe
				{
					OFFSET -0.025372 -0.048144 0.123348
					CHANNELS 3 Zrotation Yrotation Xrotation
					End Site
					{
						OFFSET 0.000000 0.000000 0.000000
					}
				}
			}
		}
	}
	JOINT Spine
	{
		OFFSET -0.002533 0.108963 -0.026696
		CHANNELS 3 Zrotation Yrotation Xrotation
		JOINT Spine1
		{
			OFFSET 0.005487 0.135180 0.001092
			CHANNELS 3 Zrotation Yrotation Xrotation
			JOINT Spine2
			{
				OFFSET 0.001457 0.052922 0.025425
				CHANNELS 3 Zrotation Yrotation Xrotation
				JOINT Neck
				{
					OFFSET -0.002778 0.213870 -0.042857
					CHANNELS 3 Zrotation Yrotation Xrotation
					JOINT Head
					{
						OFFSET 0.005152 0.064970 0.051349
						CHANNELS 3 Zrotation Yrotation Xrotation
						End Site
						{
							OFFSET 0.000000 0.000000 0.000000
						}
					}
				}
				JOINT LeftShoulder
				{
					OFFSET 0.078845 0.121749 -0.034090
					CHANNELS 3 Zrotation Yrotation Xrotation
					JOINT LeftArm
					{
						OFFSET 0.090977 0.030469 -0.008868
						CHANNELS 3 Zrotation Yrotation Xrotation
						JOINT LeftForeArm
						{
							OFFSET 0.259612 -0.012772 -0.027456
							CHANNELS 3 Zrotation Yrotation Xrotation
							JOINT LeftHand
							{
								OFFSET 0.249234 0.008986 -0.001171
								CHANNELS 3 Zrotation Yrotation Xrotation
								End Site
								{
									OFFSET 0.000000 0.000000 0.000000
								}
							}
						}
					}
				}
				JOINT RightShoulder
				{
					OFFSET -0.081759 0.118833 -0.038615
					CHANNELS 3 Zrotation Yrotation Xrotation
					JOINT RightArm
					{
						OFFSET -0.096012 0.032551 -0.009143
						CHANNELS 3 Zrotation Yrotation Xrotation
						JOINT RightForeArm
						{
							OFFSET -0.253742 -0.013329 -0.021401
							CHANNELS 3 Zrotation Yrotation Xrotation
							JOINT RightHand
							{
								OFFSET -0.255298 0.007772 -0.005559
								CHANNELS 3 Zrotation Yrotation Xrotation
								End Site
								{
									OFFSET 0.000000 0.000000 0.000000
								}
							}
						}
					}
				}
			}
		}
	}
}
MOTION
Frames: 14
Frame Time: 0.050000
0.000000 0.922779 0.000000 -0.211670 -16.684156 2.160865 -0.811328 -1.577683 -30.887826 -1.959865 0.628229 17.004079 0.694693 5.629415 21.591883 0.000000 0.000000 0.000000 3.576051 -0.118702 -0.585138 3.488619 1.318484 26.284706 -3.139681 -7.497830 0.121871 0.000000 0.000000 0.000000 -3.516678 3.810617 51.960403 -8.833250 2.507152 -21.079312 -3.300688 4.989783 29.373065 7.286267 -5.303367 -9.935718 0.000000 0.000000 0.000000 -18.863127 -17.456771 9.041200 -42.677139 -15.544165 -2.534263 20.886108 -42.341790 -5.339683 0.000000 0.000000 0.000000 27.919169 10.059411 4.658425 52.681363 19.764287 0.586342 -19.631778 48.998602 -5.385028 0.000000 0.000000 0.000000 
-0.007446 0.919912 0.042760 -0.857389 -15.143824 1.778622 -0.493118 -1.619856 -29.665144 -2.316135 0.844354 20.366588 0.258156 4.518358 17.551924 0.000000 0.000000 0.000000 3.808001 -0.041302 -1.175827 5.521934 1.166909 33.092337 -3.133056 -9.795826 5.081587 0.000000 0.000000 0.000000 -4.812354 3.827099 50.247439 -6.804831 2.059987 -19.241035 -5.010660 5.350916 29.544698 6.085831 -4.292436 -9.666091 0.000000 0.000000 0.000000 -17.736564 -16.057510 7.930540 -42.505954 -14.647263 -2.773539 19.458446 -40.571352 -4.697429 0.000000 0.000000 0.000000 30.958276 11.919772 6.295154 51.253924 18.095415 -0.263182 -22.629558 50.953630 -6.940810 0.000000 0.000000 0.000000 
-0.013608 0.920321 0.087166 -0.167140 -14.202664 0.917401 -2.753754 -2.314402 -29.197778 -0.544708 0.468114 26.441888 0.122434 3.731541 13.795897 0.000000 0.000000 0.000000 1.162971 0.199918 -2.532070 7.323887 1.022654 41.504664 0.156997 -4.984938 9.591041 0.000000 0.000000 0.000000 -6.237207 4.366137 50.712536 -6.466666 2.045513 -17.848675 -4.656270 6.151794 27.777245 4.647571 -3.140814 -7.645495 0.000000 0.000000 0.000000 -19.155267 -18.781757 9.066281 -42.590585 -14.871068 -2.362236 21.656845 -37.731537 -5.306967 0.000000 0.000000 0.000000 31.061515 10.626595 5.945727 49.423529 18.331765 -0.228664 -18.211568 50.336188 -4.857309 0.000000 0.000000 0.000000 
-0.018855 0.923915 0.132239 0.179814 -14.056707 -0.916569 -3.680579 -2.424672 -26.028802 -0.765094 0.787141 30.209844 0.770040 4.146152 10.580729 0.000000 0.000000 0.000000 0.365657 0.536628 -5.545842 8.821357 1.183212 52.171543 1.174338 -6.052106 17.525686 0.000000 0.000000 0.000000 -6.580228 4.477763 50.846713 -8.519869 2.867829 -15.139695 -3.366974 5.930702 27.128496 5.437153 -4.165951 -5.453105 0.000000 0.000000 0.000000 -18.482090 -19.782678 9.415300 -43.070577 -15.141794 -2.189765 21.682297 -37.999808 -5.406989 0.000000 0.000000 0.000000 31.463020 10.086498 5.491273 49.667977 16.482006 -0.899004 -18.074337 51.525746 -4.999412 0.000000 0.000000 0.000000 
-0.023760 0.923044 0.177328 -0.023630 -12.236069 -2.274180 -4.519197 -2.553011 -23.520040 -0.686192 0.747748 33.579636 1.201244 4.696183 8.816975 0.000000 0.000000 0.000000 0.050077 0.905120 -8.855921 9.996298 0.500878 60.833858 0.603344 -7.343858 20.056560 0.000000 0.000000 0.000000 -6.341650 3.943467 51.556458 -8.256600 2.733938 -16.876769 -3.237063 5.756444 29.832195 4.554497 -3.435159 -5.322402 0.000000 0.000000 0.000000 -18.814514 -19.526603 9.298286 -42.604794 -14.995526 -2.456917 22.025313 -38.976677 -5.660927 0.000000 0.000000 0.000000 31.914267 8.564511 4.699837 49.276866 16.026582 -1.447053 -15.819147 52.263615 -3.825460 0.000000 0.000000 0.000000 
-0.028039 0.921879 0.221925 -0.304527 -12.454585 -3.716380 -5.259680 -2.385065 -19.795549 0.157490 0.510428 35.062110 1.619260 5.143632 7.453334 0.000000 0.000000 0.000000 0.469103 1.469416 -13.200510 9.867119 1.015992 66.019057 -2.217043 -11.034152 17.150942 0.000000 0.000000 0.000000 -5.041477 3.303356 51.714010 -9.726257 3.236854 -16.824707 -2.789194 4.683389 30.078917 3.660038 -2.798843 -5.103686 0.000000 0.000000 0.000000 -18.200646 -18.406886 8.903786 -45.275983 -13.922284 -3.019596 21.656028 -41.480205 -5.650405 0.000000 0.000000 0.000000 32.497468 7.765984 3.590690 48.548015 13.817966 -2.190838 -14.511190 53.491548 -3.563487 0.000000 0.000000 0.000000 
-0.031889 0.921573 0.266084 -0.939408 -11.141855 -4.714340 -6.322442 -2.186799 -15.876209 1.077537 -0.069808 35.814210 2.924810 7.240273 5.453042 0.000000 0.000000 0.000000 0.417178 2.069414 -17.701441 9.577577 0.600004 66.418801 -4.047601 -12.821711 10.651298 0.000000 0.000000 0.000000 -3.271856 2.031368 51.631435 -9.261626 3.122093 -16.945605 -2.697856 4.082392 30.390432 3.365523 -2.652874 -4.613793 0.000000 0.000000 0.000000 -19.116728 -17.174157 8.435067 -46.372309 -13.351310 -3.380537 19.525512 -43.227750 -4.965536 0.000000 0.000000 0.000000 33.459709 6.852515 2.849382 47.294796 12.208485 -2.829939 -11.450750 53.783044 -2.200268 0.000000 0.000000 0.000000 
-0.035716 0.921032 0.309527 -1.727972 -10.255762 -5.033142 -6.902549 -1.785008 -11.948355 2.010756 -0.643220 35.832926 3.780420 8.412490 2.286481 0.000000 0.000000 0.000000 0.049310 2.838934 -23.528864 8.844376 0.403494 62.587958 -5.167057 -14.463819 7.560986 0.000000 0.000000 0.000000 -1.230366 0.753303 51.322043 -9.221749 3.103238 -17.497305 -2.072137 3.562848 30.888173 3.138298 -2.667046 -3.270766 0.000000 0.000000 0.000000 -18.694304 -16.409243 8.053032 -49.160083 -13.164048 -3.663754 19.401150 -43.969920 -4.792419 0.000000 0.000000 0.000000 33.766198 5.629571 1.908989 46.749338 10.893038 -3.374805 -10.809165 53.691179 -1.903395 0.000000 0.000000 0.000000 
-0.039983 0.921064 0.352304 -2.434439 -9.196221 -5.650699 -7.100562 -1.302857 -8.237568 2.357487 -0.983149 35.762006 4.745489 10.344413 1.993582 0.000000 0.000000 0.000000 0.290395 3.421452 -27.333655 6.381759 1.022293 53.294996 -4.547678 -13.069289 6.519048 0.000000 0.000000 0.000000 0.280600 -0.257245 51.532131 -8.008889 2.753254 -17.513828 -1.876249 2.821787 30.583358 3.492612 -3.022352 -3.686820 0.000000 0.000000 0.000000 -20.519039 -15.116427 7.643975 -48.771489 -12.800500 -3.842474 16.119899 -45.056912 -3.559953 0.000000 0.000000 0.000000 33.236146 4.529796 0.974862 46.128632 8.462028 -4.178839 -8.001467 53.072363 -0.676458 0.000000 0.000000 0.000000 
-0.045331 0.919182 0.395216 -2.762855 -7.965903 -5.545197 -7.835784 -0.951175 -5.626665 3.321424 -1.629590 36.704347 5.306531 11.386327 1.069803 0.000000 0.000000 0.000000 0.569623 3.673851 -29.020816 3.306303 1.387292 39.147566 -3.232012 -10.089614 5.527917 0.000000 0.000000 0.000000 2.584293 -1.638960 50.173960 -6.729180 2.342178 -18.281753 -2.860114 1.675213 32.259391 4.172548 -3.840323 -3.898170 0.000000 0.000000 0.000000 -20.055946 -13.685547 7.143128 -50.990406 -12.115716 -4.505834 14.361664 -46.956952 -2.602930 0.000000 0.000000 0.000000 32.341412 3.359966 -0.069286 46.547183 6.698994 -4.947666 -6.373645 54.127954 0.085669 0.000000 0.000000 0.000000 
-0.052008 0.914586 0.439854 -2.745215 -7.702033 -5.485617 -8.265722 -0.481220 -2.602195 3.773032 -1.886901 36.995724 5.502668 11.742441 0.418824 0.000000 0.000000 0.000000 0.772022 3.790589 -29.570589 0.986614 1.155757 23.948724 -0.813822 -6.198297 8.580461 0.000000 0.000000 0.000000 3.642782 -2.161919 49.474893 -5.405884 1.948680 -17.718455 -3.097288 1.297718 31.707635 4.313813 -3.666317 -6.464228 0.000000 0.000000 0.000000 -19.600913 -12.779923 6.627324 -52.831720 -11.804679 -4.590677 10.983449 -47.551148 -1.126367 0.000000 0.000000 0.000000 31.704312 2.718483 -0.658656 48.225829 5.471581 -5.398993 -8.131099 53.846711 -0.807151 0.000000 0.000000 0.000000 
-0.060052 0.908311 0.486990 -1.985676 -5.707865 -5.310731 -9.058282 -0.054655 -0.137845 4.128960 -2.399661 37.821387 5.447601 11.649564 0.732322 0.000000 0.000000 0.000000 -0.269544 3.415824 -29.735457 0.681572 0.653227 15.976489 1.382291 -3.450458 12.884463 0.000000 0.000000 0.000000 5.091201 -3.192413 48.772504 -5.008431 1.843493 -19.027929 -3.321085 -0.465827 33.041399 4.445961 -3.794771 -8.290300 0.000000 0.000000 0.000000 -19.311190 -11.095988 6.033703 -53.798358 -11.536005 -4.963662 5.804349 -48.911401 1.444794 0.000000 0.000000 0.000000 32.293321 2.276474 -1.438083 48.572227 4.530523 -5.782959 -11.413296 54.130894 -2.514384 0.000000 0.000000 0.000000 
-0.069416 0.900432 0.536966 -1.439308 -3.975660 -5.278510 -8.595267 0.179736 1.185079 4.349987 -2.934390 40.239964 3.576917 8.684834 4.560111 0.000000 0.000000 0.000000 -0.031093 3.486808 -30.844067 1.038447 0.725793 20.470845 1.696761 -3.760054 15.825232 0.000000 0.000000 0.000000 6.099631 -3.915822 47.730403 -3.754824 1.551595 -16.131372 -3.862098 -0.172207 30.063279 6.084280 -5.027960 -8.159713 0.000000 0.000000 0.000000 -18.924338 -11.164592 5.594452 -55.377887 -9.844275 -5.347591 1.275205 -49.349640 3.174494 0.000000 0.000000 0.000000 33.359104 1.627571 -1.719399 48.208169 4.104459 -5.685748 -12.908666 54.679126 -3.307600 0.000000 0.000000 0.000000 
-0.079228 0.895786 0.587562 -1.789731 -2.935492 -4.858170 -6.270163 0.088120 0.667422 2.394487 -2.411942 45.644434 1.700480 6.115519 7.821496 0.000000 0.000000 0.000000 0.379922 3.798060 -33.117576 1.775635 0.757186 28.021878 1.676036 -4.217427 17.582942 0.000000 0.000000 0.000000 8.377845 -5.081783 47.146249 -3.717225 1.570646 -16.323559 -3.933826 -0.385104 30.120533 6.431420 -5.151018 -9.064841 0.000000 0.000000 0.000000 -19.133627 -9.742579 4.803363 -55.800229 -8.512504 -5.961526 -3.014774 -49.884625 5.219148 0.000000 0.000000 0.000000 32.940105 0.554499 -2.346241 47.072541 6.220764 -4.794040 -10.728051 51.274879 -2.093851 0.000000 0.000000 0.000000 
